<svg width="596" height="421" viewBox="0 0 596 421" fill="none" xmlns="http://www.w3.org/2000/svg">
<g clip-path="url(#clip0_1_2)">
<rect width="420" height="595" transform="translate(0.5 420.5) rotate(-90)" fill="#E9F1FF"/>
<rect x="83" y="-51" width="431" height="434" rx="8" fill="#C5DBFF"/>
<rect x="122" y="-70" width="353" height="140" rx="4" fill="#669DF6"/>
<rect x="122" y="90" width="353" height="140" rx="4" fill="#669DF6"/>
<g clip-path="url(#clip1_1_2)">
<path d="M373 314C374.657 314 376 312.657 376 311C376 309.343 374.657 308 373 308C371.343 308 370 309.343 370 311C370 312.657 371.343 314 373 314Z" fill="#0451D2"/>
<path d="M359 314C360.657 314 362 312.657 362 311C362 309.343 360.657 308 359 308C357.343 308 356 309.343 356 311C356 312.657 357.343 314 359 314Z" fill="#0451D2"/>
<path d="M365.98 296C354.94 296 346 304.96 346 316C346 327.04 354.94 336 365.98 336C377.04 336 386 327.04 386 316C386 304.96 377.04 296 365.98 296ZM366 332C357.16 332 350 324.84 350 316C350 307.16 357.16 300 366 300C374.84 300 382 307.16 382 316C382 324.84 374.84 332 366 332ZM356 320C357.56 324.68 361.44 328 366 328C370.56 328 374.44 324.68 376 320L356 320Z" fill="#0451D2"/>
</g>
<path d="M241 314C242.657 314 244 312.657 244 311C244 309.343 242.657 308 241 308C239.343 308 238 309.343 238 311C238 312.657 239.343 314 241 314Z" fill="#0451D2"/>
<path d="M227 314C228.657 314 230 312.657 230 311C230 309.343 228.657 308 227 308C225.343 308 224 309.343 224 311C224 312.657 225.343 314 227 314Z" fill="#0451D2"/>
<path d="M233.98 296C222.94 296 214 304.96 214 316C214 327.04 222.94 336 233.98 336C245.04 336 254 327.04 254 316C254 304.96 245.04 296 233.98 296ZM234 332C225.16 332 218 324.84 218 316C218 307.16 225.16 300 234 300C242.84 300 250 307.16 250 316C250 324.84 242.84 332 234 332ZM234 320C229.34 320 225.36 322.9 223.76 327L227.1 327C228.48 324.62 231.04 323 234 323C236.96 323 239.5 324.62 240.9 327L244.24 327C242.64 322.9 238.66 320 234 320V320Z" fill="#0451D2"/>
<path d="M307 314C308.657 314 310 312.657 310 311C310 309.343 308.657 308 307 308C305.343 308 304 309.343 304 311C304 312.657 305.343 314 307 314Z" fill="#0451D2"/>
<path d="M293 314C294.657 314 296 312.657 296 311C296 309.343 294.657 308 293 308C291.343 308 290 309.343 290 311C290 312.657 291.343 314 293 314Z" fill="#0451D2"/>
<path d="M299.98 296C288.94 296 280 304.96 280 316C280 327.04 288.94 336 299.98 336C311.04 336 320 327.04 320 316C320 304.96 311.04 296 299.98 296ZM300 332C291.16 332 284 324.84 284 316C284 307.16 291.16 300 300 300C308.84 300 316 307.16 316 316C316 324.84 308.84 332 300 332ZM300 324C298.54 324 297.24 323.64 296.08 322.96C295.84 323.24 294.36 324.92 294.06 325.26C295.78 326.36 297.8 327 300 327C302.22 327 304.24 326.34 305.96 325.24C304.02 323.06 305.94 325.2 303.94 322.94C302.76 323.64 301.46 324 300 324Z" fill="#0451D2"/>
<path d="M207.431 260.4L203.219 273H201.329L197.891 262.938L194.453 273H192.527L188.315 260.4H190.169L193.571 270.642L197.117 260.4H198.773L202.247 270.696L205.721 260.4H207.431ZM212.134 263.37C213.454 263.37 214.462 263.694 215.158 264.342C215.866 264.99 216.22 265.956 216.22 267.24V273H214.582V271.74C214.294 272.184 213.88 272.526 213.34 272.766C212.812 272.994 212.182 273.108 211.45 273.108C210.382 273.108 209.524 272.85 208.876 272.334C208.24 271.818 207.922 271.14 207.922 270.3C207.922 269.46 208.228 268.788 208.84 268.284C209.452 267.768 210.424 267.51 211.756 267.51H214.492V267.168C214.492 266.424 214.276 265.854 213.844 265.458C213.412 265.062 212.776 264.864 211.936 264.864C211.372 264.864 210.82 264.96 210.28 265.152C209.74 265.332 209.284 265.578 208.912 265.89L208.192 264.594C208.684 264.198 209.272 263.898 209.956 263.694C210.64 263.478 211.366 263.37 212.134 263.37ZM211.738 271.776C212.398 271.776 212.968 271.632 213.448 271.344C213.928 271.044 214.276 270.624 214.492 270.084V268.752H211.828C210.364 268.752 209.632 269.244 209.632 270.228C209.632 270.708 209.818 271.086 210.19 271.362C210.562 271.638 211.078 271.776 211.738 271.776ZM222.154 273.108C221.374 273.108 220.624 273.006 219.904 272.802C219.184 272.586 218.62 272.316 218.212 271.992L218.932 270.624C219.352 270.924 219.862 271.164 220.462 271.344C221.062 271.524 221.668 271.614 222.28 271.614C223.792 271.614 224.548 271.182 224.548 270.318C224.548 270.03 224.446 269.802 224.242 269.634C224.038 269.466 223.78 269.346 223.468 269.274C223.168 269.19 222.736 269.1 222.172 269.004C221.404 268.884 220.774 268.746 220.282 268.59C219.802 268.434 219.388 268.17 219.04 267.798C218.692 267.426 218.518 266.904 218.518 266.232C218.518 265.368 218.878 264.678 219.598 264.162C220.318 263.634 221.284 263.37 222.496 263.37C223.132 263.37 223.768 263.448 224.404 263.604C225.04 263.76 225.562 263.97 225.97 264.234L225.232 265.602C224.452 265.098 223.534 264.846 222.478 264.846C221.746 264.846 221.188 264.966 220.804 265.206C220.42 265.446 220.228 265.764 220.228 266.16C220.228 266.472 220.336 266.718 220.552 266.898C220.768 267.078 221.032 267.21 221.344 267.294C221.668 267.378 222.118 267.474 222.694 267.582C223.462 267.714 224.08 267.858 224.548 268.014C225.028 268.158 225.436 268.41 225.772 268.77C226.108 269.13 226.276 269.634 226.276 270.282C226.276 271.146 225.904 271.836 225.16 272.352C224.428 272.856 223.426 273.108 222.154 273.108ZM238.634 272.442C238.382 272.658 238.07 272.826 237.698 272.946C237.326 273.054 236.942 273.108 236.546 273.108C235.586 273.108 234.842 272.85 234.314 272.334C233.786 271.818 233.522 271.08 233.522 270.12V264.882H231.902V263.46H233.522V261.372H235.25V263.46H237.986V264.882H235.25V270.048C235.25 270.564 235.376 270.96 235.628 271.236C235.892 271.512 236.264 271.65 236.744 271.65C237.272 271.65 237.722 271.5 238.094 271.2L238.634 272.442ZM245.817 263.37C247.029 263.37 247.989 263.724 248.697 264.432C249.417 265.128 249.777 266.154 249.777 267.51V273H248.049V267.708C248.049 266.784 247.827 266.088 247.383 265.62C246.939 265.152 246.303 264.918 245.475 264.918C244.539 264.918 243.801 265.194 243.261 265.746C242.721 266.286 242.451 267.066 242.451 268.086V273H240.723V259.644H242.451V264.81C242.811 264.354 243.279 264 243.855 263.748C244.443 263.496 245.097 263.37 245.817 263.37ZM252.975 263.46H254.703V273H252.975V263.46ZM253.839 261.624C253.503 261.624 253.221 261.516 252.993 261.3C252.777 261.084 252.669 260.82 252.669 260.508C252.669 260.196 252.777 259.932 252.993 259.716C253.221 259.488 253.503 259.374 253.839 259.374C254.175 259.374 254.451 259.482 254.667 259.698C254.895 259.902 255.009 260.16 255.009 260.472C255.009 260.796 254.895 261.072 254.667 261.3C254.451 261.516 254.175 261.624 253.839 261.624ZM260.738 273.108C259.958 273.108 259.208 273.006 258.488 272.802C257.768 272.586 257.204 272.316 256.796 271.992L257.516 270.624C257.936 270.924 258.446 271.164 259.046 271.344C259.646 271.524 260.252 271.614 260.864 271.614C262.376 271.614 263.132 271.182 263.132 270.318C263.132 270.03 263.03 269.802 262.826 269.634C262.622 269.466 262.364 269.346 262.052 269.274C261.752 269.19 261.32 269.1 260.756 269.004C259.988 268.884 259.358 268.746 258.866 268.59C258.386 268.434 257.972 268.17 257.624 267.798C257.276 267.426 257.102 266.904 257.102 266.232C257.102 265.368 257.462 264.678 258.182 264.162C258.902 263.634 259.868 263.37 261.08 263.37C261.716 263.37 262.352 263.448 262.988 263.604C263.624 263.76 264.146 263.97 264.554 264.234L263.816 265.602C263.036 265.098 262.118 264.846 261.062 264.846C260.33 264.846 259.772 264.966 259.388 265.206C259.004 265.446 258.812 265.764 258.812 266.16C258.812 266.472 258.92 266.718 259.136 266.898C259.352 267.078 259.616 267.21 259.928 267.294C260.252 267.378 260.702 267.474 261.278 267.582C262.046 267.714 262.664 267.858 263.132 268.014C263.612 268.158 264.02 268.41 264.356 268.77C264.692 269.13 264.86 269.634 264.86 270.282C264.86 271.146 264.488 271.836 263.744 272.352C263.012 272.856 262.01 273.108 260.738 273.108ZM280.476 268.284C280.476 268.416 280.464 268.59 280.44 268.806H272.7C272.808 269.646 273.174 270.324 273.798 270.84C274.434 271.344 275.22 271.596 276.156 271.596C277.296 271.596 278.214 271.212 278.91 270.444L279.864 271.56C279.432 272.064 278.892 272.448 278.244 272.712C277.608 272.976 276.894 273.108 276.102 273.108C275.094 273.108 274.2 272.904 273.42 272.496C272.64 272.076 272.034 271.494 271.602 270.75C271.182 270.006 270.972 269.166 270.972 268.23C270.972 267.306 271.176 266.472 271.584 265.728C272.004 264.984 272.574 264.408 273.294 264C274.026 263.58 274.848 263.37 275.76 263.37C276.672 263.37 277.482 263.58 278.19 264C278.91 264.408 279.468 264.984 279.864 265.728C280.272 266.472 280.476 267.324 280.476 268.284ZM275.76 264.828C274.932 264.828 274.236 265.08 273.672 265.584C273.12 266.088 272.796 266.748 272.7 267.564H278.82C278.724 266.76 278.394 266.106 277.83 265.602C277.278 265.086 276.588 264.828 275.76 264.828ZM294.809 263.37C296.009 263.37 296.957 263.718 297.653 264.414C298.361 265.11 298.715 266.142 298.715 267.51V273H296.987V267.708C296.987 266.784 296.771 266.088 296.339 265.62C295.919 265.152 295.313 264.918 294.521 264.918C293.645 264.918 292.949 265.194 292.433 265.746C291.917 266.286 291.659 267.066 291.659 268.086V273H289.931V267.708C289.931 266.784 289.715 266.088 289.283 265.62C288.863 265.152 288.257 264.918 287.465 264.918C286.589 264.918 285.893 265.194 285.377 265.746C284.861 266.286 284.603 267.066 284.603 268.086V273H282.875V263.46H284.531V264.882C284.879 264.39 285.335 264.018 285.899 263.766C286.463 263.502 287.105 263.37 287.825 263.37C288.569 263.37 289.229 263.52 289.805 263.82C290.381 264.12 290.825 264.558 291.137 265.134C291.497 264.582 291.995 264.15 292.631 263.838C293.279 263.526 294.005 263.37 294.809 263.37ZM305.369 263.37C306.689 263.37 307.697 263.694 308.393 264.342C309.101 264.99 309.455 265.956 309.455 267.24V273H307.817V271.74C307.529 272.184 307.115 272.526 306.575 272.766C306.047 272.994 305.417 273.108 304.685 273.108C303.617 273.108 302.759 272.85 302.111 272.334C301.475 271.818 301.157 271.14 301.157 270.3C301.157 269.46 301.463 268.788 302.075 268.284C302.687 267.768 303.659 267.51 304.991 267.51H307.727V267.168C307.727 266.424 307.511 265.854 307.079 265.458C306.647 265.062 306.011 264.864 305.171 264.864C304.607 264.864 304.055 264.96 303.515 265.152C302.975 265.332 302.519 265.578 302.147 265.89L301.427 264.594C301.919 264.198 302.507 263.898 303.191 263.694C303.875 263.478 304.601 263.37 305.369 263.37ZM304.973 271.776C305.633 271.776 306.203 271.632 306.683 271.344C307.163 271.044 307.511 270.624 307.727 270.084V268.752H305.063C303.599 268.752 302.867 269.244 302.867 270.228C302.867 270.708 303.053 271.086 303.425 271.362C303.797 271.638 304.313 271.776 304.973 271.776ZM312.653 263.46H314.381V273H312.653V263.46ZM313.517 261.624C313.181 261.624 312.899 261.516 312.671 261.3C312.455 261.084 312.347 260.82 312.347 260.508C312.347 260.196 312.455 259.932 312.671 259.716C312.899 259.488 313.181 259.374 313.517 259.374C313.853 259.374 314.129 259.482 314.345 259.698C314.573 259.902 314.687 260.16 314.687 260.472C314.687 260.796 314.573 261.072 314.345 261.3C314.129 261.516 313.853 261.624 313.517 261.624ZM317.68 259.644H319.408V273H317.68V259.644ZM332.635 263.37C333.847 263.37 334.807 263.724 335.515 264.432C336.235 265.128 336.595 266.154 336.595 267.51V273H334.867V267.708C334.867 266.784 334.645 266.088 334.201 265.62C333.757 265.152 333.121 264.918 332.293 264.918C331.357 264.918 330.619 265.194 330.079 265.746C329.539 266.286 329.269 267.066 329.269 268.086V273H327.541V259.644H329.269V264.81C329.629 264.354 330.097 264 330.673 263.748C331.261 263.496 331.915 263.37 332.635 263.37ZM348.468 268.284C348.468 268.416 348.456 268.59 348.432 268.806H340.692C340.8 269.646 341.166 270.324 341.79 270.84C342.426 271.344 343.212 271.596 344.148 271.596C345.288 271.596 346.206 271.212 346.902 270.444L347.856 271.56C347.424 272.064 346.884 272.448 346.236 272.712C345.6 272.976 344.886 273.108 344.094 273.108C343.086 273.108 342.192 272.904 341.412 272.496C340.632 272.076 340.026 271.494 339.594 270.75C339.174 270.006 338.964 269.166 338.964 268.23C338.964 267.306 339.168 266.472 339.576 265.728C339.996 264.984 340.566 264.408 341.286 264C342.018 263.58 342.84 263.37 343.752 263.37C344.664 263.37 345.474 263.58 346.182 264C346.902 264.408 347.46 264.984 347.856 265.728C348.264 266.472 348.468 267.324 348.468 268.284ZM343.752 264.828C342.924 264.828 342.228 265.08 341.664 265.584C341.112 266.088 340.788 266.748 340.692 267.564H346.812C346.716 266.76 346.386 266.106 345.822 265.602C345.27 265.086 344.58 264.828 343.752 264.828ZM350.867 259.644H352.595V273H350.867V259.644ZM360.953 263.37C361.877 263.37 362.705 263.574 363.437 263.982C364.169 264.39 364.739 264.96 365.147 265.692C365.567 266.424 365.777 267.27 365.777 268.23C365.777 269.19 365.567 270.042 365.147 270.786C364.739 271.518 364.169 272.088 363.437 272.496C362.705 272.904 361.877 273.108 360.953 273.108C360.269 273.108 359.639 272.976 359.063 272.712C358.499 272.448 358.019 272.064 357.623 271.56V276.492H355.895V263.46H357.551V264.972C357.935 264.444 358.421 264.048 359.009 263.784C359.597 263.508 360.245 263.37 360.953 263.37ZM360.809 271.596C361.421 271.596 361.967 271.458 362.447 271.182C362.939 270.894 363.323 270.498 363.599 269.994C363.887 269.478 364.031 268.89 364.031 268.23C364.031 267.57 363.887 266.988 363.599 266.484C363.323 265.968 362.939 265.572 362.447 265.296C361.967 265.02 361.421 264.882 360.809 264.882C360.209 264.882 359.663 265.026 359.171 265.314C358.691 265.59 358.307 265.98 358.019 266.484C357.743 266.988 357.605 267.57 357.605 268.23C357.605 268.89 357.743 269.478 358.019 269.994C358.295 270.498 358.679 270.894 359.171 271.182C359.663 271.458 360.209 271.596 360.809 271.596ZM371.656 260.958C370.624 260.958 370.108 261.516 370.108 262.632V263.46H372.88V264.882H370.144V273H368.416V264.882H366.796V263.46H368.416V262.614C368.416 261.666 368.692 260.916 369.244 260.364C369.796 259.812 370.57 259.536 371.566 259.536C371.95 259.536 372.31 259.584 372.646 259.68C372.982 259.776 373.27 259.914 373.51 260.094L372.988 261.408C372.592 261.108 372.148 260.958 371.656 260.958ZM383.402 263.46V273H381.764V271.56C381.416 272.052 380.954 272.436 380.378 272.712C379.814 272.976 379.196 273.108 378.524 273.108C377.252 273.108 376.25 272.76 375.518 272.064C374.786 271.356 374.42 270.318 374.42 268.95V263.46H376.148V268.752C376.148 269.676 376.37 270.378 376.814 270.858C377.258 271.326 377.894 271.56 378.722 271.56C379.634 271.56 380.354 271.284 380.882 270.732C381.41 270.18 381.674 269.4 381.674 268.392V263.46H383.402ZM386.692 259.644H388.42V273H386.692V259.644ZM391.719 259.644H393.447V273H391.719V259.644ZM404.046 269.022C404.046 268.542 404.124 268.122 404.28 267.762C404.448 267.39 404.646 267.078 404.874 266.826C405.114 266.574 405.426 266.274 405.81 265.926C406.29 265.506 406.644 265.146 406.872 264.846C407.1 264.534 407.214 264.162 407.214 263.73C407.214 263.142 406.986 262.674 406.53 262.326C406.074 261.966 405.444 261.786 404.64 261.786C403.236 261.786 402.162 262.26 401.418 263.208L400.104 262.272C400.608 261.624 401.25 261.126 402.03 260.778C402.822 260.43 403.734 260.256 404.766 260.256C406.074 260.256 407.112 260.544 407.88 261.12C408.648 261.684 409.032 262.464 409.032 263.46C409.032 263.952 408.948 264.39 408.78 264.774C408.624 265.146 408.432 265.458 408.204 265.71C407.976 265.962 407.67 266.262 407.286 266.61C406.794 267.054 406.428 267.444 406.188 267.78C405.96 268.116 405.846 268.53 405.846 269.022H404.046ZM404.964 273.108C404.628 273.108 404.346 273 404.118 272.784C403.902 272.556 403.794 272.28 403.794 271.956C403.794 271.632 403.902 271.362 404.118 271.146C404.346 270.918 404.628 270.804 404.964 270.804C405.3 270.804 405.576 270.918 405.792 271.146C406.008 271.362 406.116 271.632 406.116 271.956C406.116 272.28 406.002 272.556 405.774 272.784C405.558 273 405.288 273.108 404.964 273.108Z" fill="#0A49B0"/>
</g>
<defs>
<clipPath id="clip0_1_2">
<rect width="420" height="595" fill="white" transform="translate(0.5 420.5) rotate(-90)"/>
</clipPath>
<clipPath id="clip1_1_2">
<rect width="48" height="48" fill="white" transform="translate(342 292)"/>
</clipPath>
</defs>
</svg>
