<svg width="197" height="36" viewBox="0 0 197 36" fill="none" xmlns="http://www.w3.org/2000/svg">
<path d="M64.688 26L64.664 14.864L59.144 24.08H57.752L52.232 15.008V26H49.256V9.2H51.824L58.496 20.336L65.048 9.2H67.616L67.64 26H64.688ZM76.7859 13.04C78.6739 13.04 80.1139 13.496 81.1059 14.408C82.1139 15.304 82.6179 16.664 82.6179 18.488V26H79.7859V24.44C79.4179 25 78.8899 25.432 78.2019 25.736C77.5299 26.024 76.7139 26.168 75.7539 26.168C74.7939 26.168 73.9539 26.008 73.2339 25.688C72.5139 25.352 71.9539 24.896 71.5539 24.32C71.1699 23.728 70.9779 23.064 70.9779 22.328C70.9779 21.176 71.4019 20.256 72.2499 19.568C73.1139 18.864 74.4659 18.512 76.3059 18.512H79.6179V18.32C79.6179 17.424 79.3459 16.736 78.8019 16.256C78.2739 15.776 77.4819 15.536 76.4259 15.536C75.7059 15.536 74.9939 15.648 74.2899 15.872C73.6019 16.096 73.0179 16.408 72.5379 16.808L71.3619 14.624C72.0339 14.112 72.8419 13.72 73.7859 13.448C74.7299 13.176 75.7299 13.04 76.7859 13.04ZM76.3779 23.984C77.1299 23.984 77.7939 23.816 78.3699 23.48C78.9619 23.128 79.3779 22.632 79.6179 21.992V20.504H76.5219C74.7939 20.504 73.9299 21.072 73.9299 22.208C73.9299 22.752 74.1459 23.184 74.5779 23.504C75.0099 23.824 75.6099 23.984 76.3779 23.984ZM86.468 13.184H89.468V26H86.468V13.184ZM87.98 11.072C87.436 11.072 86.98 10.904 86.612 10.568C86.244 10.216 86.06 9.784 86.06 9.272C86.06 8.76 86.244 8.336 86.612 8C86.98 7.648 87.436 7.472 87.98 7.472C88.524 7.472 88.98 7.64 89.348 7.976C89.716 8.296 89.9 8.704 89.9 9.2C89.9 9.728 89.716 10.176 89.348 10.544C88.996 10.896 88.54 11.072 87.98 11.072ZM93.4055 8.192H96.4055V26H93.4055V8.192ZM106.103 26.168C104.807 26.168 103.639 25.888 102.599 25.328C101.559 24.768 100.743 23.992 100.151 23C99.575 21.992 99.287 20.856 99.287 19.592C99.287 18.328 99.575 17.2 100.151 16.208C100.743 15.216 101.559 14.44 102.599 13.88C103.639 13.32 104.807 13.04 106.103 13.04C107.415 13.04 108.591 13.32 109.631 13.88C110.671 14.44 111.479 15.216 112.055 16.208C112.647 17.2 112.943 18.328 112.943 19.592C112.943 20.856 112.647 21.992 112.055 23C111.479 23.992 110.671 24.768 109.631 25.328C108.591 25.888 107.415 26.168 106.103 26.168ZM106.103 23.6C107.207 23.6 108.119 23.232 108.839 22.496C109.559 21.76 109.919 20.792 109.919 19.592C109.919 18.392 109.559 17.424 108.839 16.688C108.119 15.952 107.207 15.584 106.103 15.584C104.999 15.584 104.087 15.952 103.367 16.688C102.663 17.424 102.311 18.392 102.311 19.592C102.311 20.792 102.663 21.76 103.367 22.496C104.087 23.232 104.999 23.6 106.103 23.6ZM122.916 13.04C124.164 13.04 125.276 13.312 126.252 13.856C127.244 14.4 128.02 15.168 128.58 16.16C129.14 17.152 129.42 18.296 129.42 19.592C129.42 20.888 129.14 22.04 128.58 23.048C128.02 24.04 127.244 24.808 126.252 25.352C125.276 25.896 124.164 26.168 122.916 26.168C121.188 26.168 119.82 25.592 118.812 24.44V30.656H115.812V13.184H118.668V14.864C119.164 14.256 119.772 13.8 120.492 13.496C121.228 13.192 122.036 13.04 122.916 13.04ZM122.58 23.6C123.684 23.6 124.588 23.232 125.292 22.496C126.012 21.76 126.372 20.792 126.372 19.592C126.372 18.392 126.012 17.424 125.292 16.688C124.588 15.952 123.684 15.584 122.58 15.584C121.86 15.584 121.212 15.752 120.636 16.088C120.06 16.408 119.604 16.872 119.268 17.48C118.932 18.088 118.764 18.792 118.764 19.592C118.764 20.392 118.932 21.096 119.268 21.704C119.604 22.312 120.06 22.784 120.636 23.12C121.212 23.44 121.86 23.6 122.58 23.6ZM132.265 13.184H135.265V26H132.265V13.184ZM133.777 11.072C133.233 11.072 132.777 10.904 132.409 10.568C132.041 10.216 131.857 9.784 131.857 9.272C131.857 8.76 132.041 8.336 132.409 8C132.777 7.648 133.233 7.472 133.777 7.472C134.321 7.472 134.777 7.64 135.145 7.976C135.513 8.296 135.697 8.704 135.697 9.2C135.697 9.728 135.513 10.176 135.145 10.544C134.793 10.896 134.337 11.072 133.777 11.072ZM146.474 13.04C148.09 13.04 149.386 13.512 150.362 14.456C151.338 15.4 151.826 16.8 151.826 18.656V26H148.826V19.04C148.826 17.92 148.562 17.08 148.034 16.52C147.506 15.944 146.754 15.656 145.778 15.656C144.674 15.656 143.802 15.992 143.162 16.664C142.522 17.32 142.202 18.272 142.202 19.52V26H139.202V13.184H142.058V14.84C142.554 14.248 143.178 13.8 143.93 13.496C144.682 13.192 145.53 13.04 146.474 13.04ZM155.632 13.184H158.632V26H155.632V13.184ZM157.144 11.072C156.6 11.072 156.144 10.904 155.776 10.568C155.408 10.216 155.224 9.784 155.224 9.272C155.224 8.76 155.408 8.336 155.776 8C156.144 7.648 156.6 7.472 157.144 7.472C157.688 7.472 158.144 7.64 158.512 7.976C158.88 8.296 159.064 8.704 159.064 9.2C159.064 9.728 158.88 10.176 158.512 10.544C158.16 10.896 157.704 11.072 157.144 11.072ZM168.33 26.168C167.034 26.168 165.866 25.888 164.826 25.328C163.786 24.768 162.97 23.992 162.378 23C161.802 21.992 161.514 20.856 161.514 19.592C161.514 18.328 161.802 17.2 162.378 16.208C162.97 15.216 163.786 14.44 164.826 13.88C165.866 13.32 167.034 13.04 168.33 13.04C169.642 13.04 170.818 13.32 171.858 13.88C172.898 14.44 173.706 15.216 174.282 16.208C174.874 17.2 175.17 18.328 175.17 19.592C175.17 20.856 174.874 21.992 174.282 23C173.706 23.992 172.898 24.768 171.858 25.328C170.818 25.888 169.642 26.168 168.33 26.168ZM168.33 23.6C169.434 23.6 170.346 23.232 171.066 22.496C171.786 21.76 172.146 20.792 172.146 19.592C172.146 18.392 171.786 17.424 171.066 16.688C170.346 15.952 169.434 15.584 168.33 15.584C167.226 15.584 166.314 15.952 165.594 16.688C164.89 17.424 164.538 18.392 164.538 19.592C164.538 20.792 164.89 21.76 165.594 22.496C166.314 23.232 167.226 23.6 168.33 23.6ZM185.31 13.04C186.926 13.04 188.222 13.512 189.198 14.456C190.174 15.4 190.662 16.8 190.662 18.656V26H187.662V19.04C187.662 17.92 187.398 17.08 186.87 16.52C186.342 15.944 185.59 15.656 184.614 15.656C183.51 15.656 182.638 15.992 181.998 16.664C181.358 17.32 181.038 18.272 181.038 19.52V26H178.038V13.184H180.894V14.84C181.39 14.248 182.014 13.8 182.766 13.496C183.518 13.192 184.366 13.04 185.31 13.04Z" fill="#656565"/>
<path d="M32 0.5H4C2.075 0.5 0.5 2.075 0.5 4V35.5L7.5 28.5H32C33.925 28.5 35.5 26.925 35.5 25V4C35.5 2.075 33.925 0.5 32 0.5ZM20.7475 17.2475L18 23.25L15.2525 17.2475L9.25 14.5L15.2525 11.7525L18 5.75L20.7475 11.7525L26.75 14.5L20.7475 17.2475Z" fill="#4285F4"/>
</svg>
